<?xml version="1.0" standalone="no"?>
<!DOCTYPE svg PUBLIC "-//W3C//DTD SVG 20010904//EN"
 "http://www.w3.org/TR/2001/REC-SVG-20010904/DTD/svg10.dtd">
<svg version="1.0" xmlns="http://www.w3.org/2000/svg"
 width="500.000000pt" height="500.000000pt" viewBox="0 0 500.000000 500.000000"
 preserveAspectRatio="xMidYMid meet">

<g transform="translate(0.000000,500.000000) scale(0.100000,-0.100000)"
fill="#000000" stroke="none">
<path d="M2615 3849 c-553 -53 -1124 -313 -1475 -670 -152 -155 -252 -314
-314 -500 -45 -133 -46 -163 -3 -49 130 342 438 641 892 868 335 167 720 262
1061 262 124 0 118 -3 128 63 l5 37 -107 -1 c-59 -1 -143 -5 -187 -10z"/>
<path d="M2785 3569 c-227 -29 -694 -189 -716 -245 -8 -20 -12 -74 -5 -74 2 0
48 20 102 44 136 60 357 130 488 156 383 73 700 36 996 -116 304 -156 513
-412 576 -707 8 -39 16 -121 17 -181 3 -142 14 -88 16 72 2 205 -44 363 -156
530 -180 271 -478 455 -837 517 -98 17 -362 19 -481 4z"/>
<path d="M1460 2984 c-57 -10 -69 -15 -84 -30 -21 -21 -20 -57 2 -77 15 -14
32 -16 94 -11 90 8 137 -5 173 -47 48 -57 24 -127 -67 -199 -51 -41 -153 -95
-200 -106 -32 -7 -30 -14 -54 225 -9 91 -20 175 -25 187 -13 35 -55 42 -84 14
-30 -28 -43 -85 -55 -240 -14 -179 -13 -634 1 -681 15 -50 62 -105 110 -129
127 -65 377 -38 525 58 118 77 174 165 182 288 8 128 -40 232 -136 296 l-49
32 20 50 c55 140 -5 300 -132 353 -36 15 -173 26 -221 17z m-29 -95 c10 -7 8
-9 -11 -7 -21 3 -25 9 -27 38 l-2 35 13 -28 c7 -16 19 -33 27 -38z m-183 24
c-15 -16 -32 -41 -38 -57 -15 -39 -25 -25 -11 15 14 40 39 69 59 69 12 0 9 -8
-10 -27z m462 -150 c0 -44 -23 -103 -39 -103 -5 0 -3 14 6 31 10 21 14 48 11
85 -4 44 -2 52 9 43 7 -7 13 -31 13 -56z m94 -425 c25 -35 29 -81 12 -123 -20
-46 -30 -42 -16 6 13 46 3 94 -28 131 -24 28 -24 30 -5 19 12 -6 29 -21 37
-33z m-75 6 c13 -9 29 -32 37 -50 44 -106 -101 -211 -307 -222 l-96 -5 -6 54
c-4 30 -7 77 -7 106 l0 51 95 32 c150 50 245 61 284 34z m-439 -412 c37 -25
50 -42 33 -42 -19 1 -90 59 -110 89 -34 51 -28 70 7 22 17 -23 48 -54 70 -69z"/>
<path d="M3464 2966 c-64 -16 -114 -46 -148 -90 -30 -41 -33 -76 -8 -99 24
-22 39 -21 83 2 132 71 268 59 342 -28 99 -118 107 -444 15 -581 -75 -112
-219 -104 -293 15 -28 46 -30 54 -30 154 1 96 3 111 29 161 44 85 75 120 127
145 65 30 79 43 79 75 0 45 -32 65 -109 65 -83 0 -142 -28 -217 -104 -94 -93
-153 -249 -154 -401 0 -241 166 -409 406 -410 165 0 325 159 369 366 22 104
20 283 -6 374 -61 221 -165 331 -339 359 -77 13 -81 13 -146 -3z m-95 -156
c18 0 22 -3 14 -11 -17 -17 -57 -7 -61 16 -3 16 -1 18 9 8 7 -7 24 -13 38 -13z
m271 -99 c0 -13 -29 -41 -42 -41 -7 0 -1 11 12 25 26 27 30 30 30 16z m-230
-7 c0 -3 -11 -15 -25 -26 -13 -10 -41 -46 -61 -79 -20 -32 -38 -58 -40 -56 -2
2 2 21 9 43 15 51 117 154 117 118z m451 -189 c9 -65 9 -95 -4 -161 -15 -77
-43 -161 -51 -153 -3 2 5 47 15 99 15 70 19 123 17 202 -2 59 0 104 4 100 4
-4 13 -44 19 -87z m-386 -580 c88 -38 88 -52 0 -24 -63 20 -147 77 -174 119
-13 19 -4 15 41 -19 31 -23 91 -58 133 -76z"/>
<path d="M2827 2930 c-51 -45 -87 -122 -178 -387 -45 -134 -85 -243 -88 -243
-4 0 -17 61 -29 136 -28 163 -64 293 -98 351 -18 32 -34 45 -63 54 -60 18
-107 -9 -148 -86 -59 -110 -152 -423 -182 -612 -16 -99 8 -153 69 -153 39 0
66 48 139 250 41 111 77 198 81 193 4 -4 26 -108 49 -231 23 -122 49 -240 57
-262 30 -75 102 -103 156 -60 33 25 50 71 154 405 47 154 90 284 94 288 4 5
11 -40 14 -100 10 -166 37 -444 47 -483 5 -20 22 -49 39 -65 56 -53 145 -32
176 41 13 31 12 61 -6 262 -32 355 -70 584 -110 662 -39 77 -112 94 -173 40z
m47 -22 c-14 -12 -42 -46 -61 -75 -41 -65 -53 -64 -23 1 24 49 85 110 101 100
5 -3 -2 -15 -17 -26z m-529 -101 c-24 -15 -73 -63 -103 -102 -22 -29 -22 -29
-16 -5 15 59 75 120 119 119 20 0 20 0 0 -12z m-246 -755 c18 -33 3 -42 -20
-13 -11 13 -19 39 -19 60 0 52 14 61 21 14 3 -21 11 -49 18 -61z m842 -14 c6
-23 26 -57 45 -76 39 -39 37 -54 -4 -30 -34 21 -62 73 -62 115 0 45 7 41 21
-9z m-394 -127 c22 -16 24 -20 10 -21 -44 0 -78 39 -91 110 -7 34 -6 33 23
-16 16 -29 43 -61 58 -73z"/>
<path d="M761 2280 c0 -73 5 -153 14 -192 80 -378 456 -675 1036 -817 790
-193 1410 -134 1879 177 115 77 293 254 363 362 72 111 101 171 137 279 38
112 38 139 1 44 -86 -218 -227 -398 -431 -550 -205 -152 -421 -241 -734 -300
-129 -24 -470 -29 -656 -9 -677 74 -1170 274 -1410 573 -106 131 -160 264
-184 448 l-14 110 -1 -125z"/>
</g>
</svg>
