<?xml version="1.0" standalone="no"?>
<!DOCTYPE svg PUBLIC "-//W3C//DTD SVG 20010904//EN"
 "http://www.w3.org/TR/2001/REC-SVG-20010904/DTD/svg10.dtd">
<svg version="1.0" xmlns="http://www.w3.org/2000/svg"
 width="500.000000pt" height="500.000000pt" viewBox="0 0 500.000000 500.000000"
 preserveAspectRatio="xMidYMid meet">

<g transform="translate(0.000000,500.000000) scale(0.100000,-0.100000)"
fill="#000000" stroke="none">
<path d="M0 2500 l0 -2500 2500 0 2500 0 0 2500 0 2500 -2500 0 -2500 0 0
-2500z m2904 1323 c-10 -66 -4 -63 -128 -63 -341 0 -726 -95 -1061 -262 -454
-227 -762 -526 -892 -868 -43 -114 -42 -84 3 49 62 186 162 345 314 500 396
403 1053 672 1662 680 l107 1 -5 -37z m362 -258 c359 -62 657 -246 837 -517
112 -167 158 -325 156 -530 -2 -160 -13 -214 -16 -72 -1 60 -9 142 -17 181
-88 409 -455 736 -936 833 -192 38 -399 35 -636 -10 -131 -26 -352 -96 -488
-156 -54 -24 -100 -44 -102 -44 -7 0 -3 54 5 74 22 56 489 216 716 245 119 15
383 13 481 -4z m-1605 -591 c140 -41 215 -222 152 -365 l-20 -46 34 -19 c128
-68 189 -258 131 -411 -26 -70 -118 -167 -195 -206 -116 -59 -277 -87 -388
-68 -112 20 -177 66 -212 150 -29 69 -15 749 17 872 14 49 52 83 85 75 36 -9
42 -33 60 -219 23 -239 21 -230 53 -223 47 11 149 65 200 106 92 72 115 142
66 199 -33 40 -90 55 -178 47 -57 -5 -72 -3 -87 10 -27 24 -25 70 4 85 58 32
194 38 278 13z m1951 -3 c120 -20 223 -92 274 -193 60 -119 76 -184 81 -330 9
-256 -49 -406 -201 -512 -88 -61 -113 -69 -204 -63 -137 9 -236 58 -307 155
-103 140 -99 382 10 568 63 108 187 194 279 194 57 0 91 -13 110 -42 26 -40
10 -67 -59 -98 -70 -31 -99 -63 -142 -155 -25 -53 -28 -71 -28 -160 0 -91 2
-104 27 -147 69 -117 213 -130 288 -27 101 140 95 473 -11 594 -66 75 -190 90
-304 37 -77 -37 -91 -38 -117 -15 -57 51 42 168 163 192 61 12 76 12 141 2z
m-638 -44 c17 -18 39 -59 49 -89 44 -139 118 -800 97 -864 -31 -93 -154 -108
-204 -24 -19 34 -49 276 -61 503 -4 71 -11 125 -15 120 -4 -4 -49 -143 -100
-308 -51 -165 -101 -317 -111 -337 -23 -45 -54 -68 -94 -68 -80 0 -104 51
-156 336 -23 126 -45 233 -49 237 -3 4 -40 -84 -80 -195 -75 -205 -99 -248
-140 -248 -68 0 -88 54 -65 177 59 320 167 620 238 663 59 37 123 17 157 -49
30 -60 68 -200 91 -340 12 -69 24 -129 28 -133 4 -5 43 97 86 225 120 351 166
427 257 427 33 0 46 -6 72 -33z m-2162 -807 c133 -409 550 -673 1268 -804 242
-44 422 -59 655 -53 422 10 743 110 1025 320 204 152 345 332 431 550 37 95
37 68 -1 -44 -61 -184 -150 -323 -304 -474 -207 -205 -436 -327 -761 -406
-340 -82 -815 -60 -1314 62 -580 142 -956 439 -1036 817 -9 39 -14 119 -14
192 l1 125 14 -110 c8 -60 24 -139 36 -175z"/>
<path d="M1227 2922 c-19 -21 -42 -80 -34 -89 3 -3 13 12 22 33 9 22 26 47 38
56 17 14 18 18 6 18 -9 0 -23 -8 -32 -18z"/>
<path d="M1390 2918 c0 -18 6 -29 21 -33 11 -4 23 -4 26 -1 4 3 1 6 -5 6 -6 0
-18 12 -26 28 l-15 27 -1 -27z"/>
<path d="M1686 2810 c12 -39 6 -100 -11 -126 -8 -13 -12 -24 -7 -24 16 0 42
59 42 97 0 22 -7 48 -16 59 -14 18 -15 18 -8 -6z"/>
<path d="M1772 2351 c33 -38 44 -90 29 -132 -16 -46 -4 -49 15 -4 25 60 3 129
-49 156 -19 11 -18 8 5 -20z"/>
<path d="M1594 2350 c-57 -8 -212 -57 -231 -73 -14 -11 -16 -54 -6 -147 l6
-63 96 6 c104 5 177 27 243 73 74 52 91 132 39 185 -32 31 -49 33 -147 19z"/>
<path d="M1190 2029 c0 -28 58 -98 100 -119 22 -11 40 -16 40 -10 0 5 -4 10
-8 10 -15 0 -94 73 -113 104 -11 19 -19 24 -19 15z"/>
<path d="M3322 2815 c4 -23 44 -33 61 -16 8 8 4 11 -14 11 -14 0 -31 6 -38 13
-10 10 -12 8 -9 -8z"/>
<path d="M3610 2695 c-25 -27 -12 -35 14 -9 14 14 22 34 13 34 -2 0 -14 -11
-27 -25z"/>
<path d="M3356 2676 c-34 -31 -83 -122 -73 -132 2 -3 17 17 32 43 15 26 44 65
63 86 45 46 26 49 -22 3z"/>
<path d="M3838 2506 c4 -94 -9 -201 -35 -291 -11 -41 15 0 31 48 27 82 37 181
26 254 -17 106 -26 101 -22 -11z"/>
<path d="M3301 2030 c26 -41 108 -97 173 -118 78 -26 96 -16 25 13 -82 33
-120 54 -169 94 -38 30 -42 32 -29 11z"/>
<path d="M2847 2910 c-19 -17 -45 -51 -57 -76 -25 -54 -19 -73 7 -23 10 19 37
53 59 77 49 49 41 67 -9 22z"/>
<path d="M2300 2804 c-29 -18 -64 -67 -74 -104 l-7 -25 18 23 c46 60 86 102
99 102 7 0 16 5 19 10 10 15 -27 11 -55 -6z"/>
<path d="M2067 2137 c-12 -30 -8 -71 9 -95 20 -28 39 -29 23 -1 -6 12 -14 42
-18 68 -5 33 -9 41 -14 28z"/>
<path d="M2921 2052 c-1 -45 32 -105 64 -120 39 -18 42 -7 7 23 -17 14 -40 49
-51 78 -19 49 -20 50 -20 19z"/>
<path d="M2466 2000 c10 -53 32 -90 61 -101 34 -13 43 -3 15 17 -12 8 -36 39
-53 67 -29 50 -30 50 -23 17z"/>
</g>
</svg>
