<?xml version="1.0" standalone="no"?>
<!DOCTYPE svg PUBLIC "-//W3C//DTD SVG 20010904//EN"
 "http://www.w3.org/TR/2001/REC-SVG-20010904/DTD/svg10.dtd">
<svg version="1.0" xmlns="http://www.w3.org/2000/svg"
 width="527.000000pt" height="668.000000pt" viewBox="0 0 527.000000 668.000000"
 preserveAspectRatio="xMidYMid meet">

<g transform="translate(0.000000,668.000000) scale(0.100000,-0.100000)"
fill="#000000" stroke="none">
<path d="M2690 6280 c-120 -26 -1772 -604 -1840 -644 -30 -17 -69 -51 -87 -75
l-33 -43 0 -1199 c0 -1001 2 -1205 14 -1233 17 -40 52 -75 128 -124 l58 -37 0
-77 c0 -66 3 -81 24 -104 l23 -28 86 31 86 31 380 -252 c210 -138 381 -254
381 -257 0 -3 -217 -81 -482 -174 -492 -170 -582 -206 -630 -249 -65 -58 -68
-72 -68 -291 0 -227 2 -233 81 -297 76 -61 1242 -826 1290 -846 92 -40 196
-57 339 -57 74 1 162 7 195 14 68 15 1722 589 1801 625 63 29 133 90 151 133
9 23 13 84 13 213 0 200 -5 224 -60 277 -17 17 -279 195 -582 394 -350 231
-544 365 -536 370 13 7 676 239 684 239 2 0 4 -9 4 -20 0 -15 25 -36 86 -76
80 -52 88 -55 115 -44 16 7 43 28 59 47 28 32 30 39 30 118 l0 83 33 11 c37
13 126 83 144 115 7 11 12 28 12 36 0 8 -7 -1 -15 -20 -17 -40 -84 -97 -144
-122 l-40 -17 0 1167 0 1167 47 19 c26 11 71 43 100 71 l53 51 3 -1150 2
-1151 2 1185 c2 1139 2 1187 -16 1226 -10 23 -36 55 -57 72 -39 31 -1052 703
-1196 793 -43 27 -101 58 -130 69 -131 51 -353 64 -508 30z m371 -5 c108 -19
171 -43 267 -104 112 -70 1151 -758 1191 -788 49 -37 75 -102 61 -152 -12 -47
-72 -104 -144 -137 -78 -35 -1732 -610 -1801 -625 -37 -9 -118 -13 -210 -13
-132 1 -160 4 -239 28 -49 15 -109 39 -135 54 -71 41 -1201 789 -1242 822 -41
33 -69 84 -69 128 0 42 50 105 112 140 68 39 1726 618 1838 642 105 23 259 25
371 5z m-2231 -2114 l0 -1165 -31 30 c-62 58 -59 -13 -59 1244 l0 1150 45 -47
45 -47 0 -1165z m627 755 l563 -371 0 -1162 c0 -640 -3 -1163 -6 -1163 -3 0
-269 174 -590 386 l-584 386 0 1165 0 1165 28 -17 c15 -10 280 -185 589 -389z
m2916 -2187 c-7 -7 -1567 -554 -1615 -567 -17 -4 -18 56 -18 1160 l0 1165 468
163 c257 90 625 218 817 286 l350 122 3 -1161 c1 -639 -1 -1164 -5 -1168z
m-2188 1745 c81 -24 106 -27 245 -28 114 0 173 5 223 17 38 9 70 17 73 17 2 0
4 -524 4 -1165 l0 -1164 -37 -10 c-97 -26 -183 -33 -302 -28 -133 6 -210 22
-303 64 l-58 26 0 1169 0 1170 33 -21 c18 -11 73 -32 122 -47z m-1217 -1576
c7 -7 12 -43 12 -92 l-1 -81 -19 24 c-16 18 -20 38 -20 92 0 69 5 80 28 57z
m124 -83 l48 -31 -75 -27 -75 -26 0 76 0 75 28 -17 c15 -10 48 -33 74 -50z
m3298 -174 c0 -87 -15 -118 -71 -146 l-29 -16 0 104 0 103 43 16 c23 8 45 16
50 17 4 0 7 -34 7 -78z m-110 -61 l0 -100 -80 51 c-62 40 -80 56 -80 74 0 20
11 27 73 48 39 14 75 26 80 26 4 1 7 -44 7 -99z m-343 -565 c296 -195 559
-373 585 -395 61 -53 76 -96 53 -156 -18 -47 -54 -83 -119 -116 -71 -37 -1747
-618 -1830 -634 -60 -12 -115 -15 -230 -12 -207 7 -268 28 -483 169 -569 372
-1131 751 -1147 774 -66 95 1 202 168 265 44 17 287 103 539 191 l459 160 44
-28 c24 -15 44 -30 44 -33 0 -3 -220 -81 -488 -174 -268 -93 -509 -180 -535
-194 -92 -49 -113 -116 -55 -176 38 -38 1218 -818 1281 -846 93 -41 282 -51
378 -19 102 34 1678 584 1705 595 49 21 102 71 109 104 4 18 0 40 -10 60 -16
31 -94 84 -894 611 l-253 167 58 20 c33 11 64 21 71 21 7 1 254 -159 550 -354z
m-129 -60 l542 -358 0 -87 c0 -59 -4 -91 -13 -98 -10 -8 -155 83 -592 372
l-580 382 0 64 c0 63 0 63 35 76 19 7 42 12 50 10 8 -2 259 -164 558 -361z
m-658 279 c0 -50 -2 -55 -17 -48 -10 4 -44 16 -77 27 l-58 21 73 27 c41 15 75
28 77 28 1 1 2 -24 2 -55z m-47 -47 c43 -20 1162 -750 1191 -778 5 -5 7 -11 4
-14 -5 -5 -1448 -510 -1652 -579 -139 -46 -313 -45 -423 4 -63 27 -1203 784
-1195 792 8 8 1149 408 1163 408 4 0 9 -26 11 -57 l3 -58 55 -19 c70 -24 218
-32 292 -17 l57 12 3 116 3 115 70 18 c39 10 113 35 165 54 111 42 167 43 253
3z m-1025 -16 c20 -10 56 -24 80 -31 42 -13 42 -14 42 -59 l0 -46 -568 -198
c-312 -108 -570 -197 -574 -197 -5 0 -8 47 -8 104 l0 103 233 82 c127 44 347
121 487 171 140 49 259 89 263 90 4 0 24 -8 45 -19z m380 -66 l142 0 0 -107 0
-108 -27 -7 c-54 -15 -245 -9 -305 10 l-58 18 0 105 0 105 53 -8 c28 -4 116
-8 195 -8z m-1420 -372 c-3 -101 -4 -108 -24 -111 -14 -2 -35 10 -58 31 -59
56 -47 118 34 166 19 12 39 21 43 21 4 0 6 -48 5 -107z m-208 -317 c0 -86 -4
-156 -8 -156 -11 0 -57 50 -71 77 -7 13 -11 81 -11 173 l0 152 45 -45 45 -45
0 -156z m3565 133 c19 -36 13 -79 -16 -105 -19 -17 -19 -16 -19 59 0 83 10 96
35 46z m-2547 -645 l172 -113 0 -162 c0 -88 -4 -159 -8 -157 -5 2 -270 176
-590 388 l-582 385 0 162 0 162 418 -276 c229 -152 495 -327 590 -389z m2737
248 c-3 -18 -20 -48 -37 -68 -31 -35 -122 -94 -145 -94 -10 0 -13 38 -13 158
l0 158 54 26 c63 31 122 80 133 111 10 26 17 -242 8 -291z m-207 -13 l-3 -161
-795 -278 c-437 -152 -805 -280 -818 -284 l-23 -8 3 163 3 163 805 282 c443
155 811 282 818 283 10 1 12 -34 10 -160z m-2183 -425 c82 -26 390 -27 478 -2
l57 16 0 -163 0 -164 -77 -18 c-171 -39 -433 -18 -564 46 l-54 26 -3 162 -2
162 52 -23 c29 -13 80 -32 113 -42z"/>
<path d="M2785 6169 c-22 -5 -131 -42 -243 -81 -144 -50 -206 -68 -214 -60 -7
7 17 19 82 40 l92 29 -43 31 -44 30 -185 -65 c-172 -59 -226 -83 -189 -83 7 0
27 -10 43 -23 l28 -23 93 32 c50 18 97 29 104 25 15 -9 11 -11 -448 -171 -190
-66 -356 -120 -370 -120 -37 0 -13 14 82 46 42 14 77 27 77 28 0 2 -19 16 -41
31 l-41 27 -182 -62 c-99 -35 -185 -66 -189 -70 -4 -4 10 -18 31 -33 l40 -26
91 30 c97 31 111 34 111 21 0 -4 -82 -36 -182 -71 -239 -83 -268 -98 -291
-144 -18 -35 -18 -39 -3 -62 9 -14 85 -71 169 -127 120 -81 147 -103 129 -106
-15 -2 -47 12 -87 38 l-64 41 -55 -17 c-31 -10 -56 -20 -55 -23 0 -3 62 -46
138 -96 l137 -90 59 21 59 21 -70 47 c-63 42 -66 46 -39 46 22 0 105 -50 315
-190 157 -104 286 -194 288 -200 8 -22 -32 -8 -97 34 l-68 43 -47 -18 c-27
-10 -50 -20 -53 -23 -3 -2 57 -45 131 -96 l137 -91 54 17 c30 10 55 21 55 25
0 4 -27 24 -59 45 -56 36 -68 54 -36 54 7 0 74 -40 149 -90 172 -114 199 -127
285 -141 98 -16 166 -3 388 75 237 83 241 84 248 53 4 -14 5 -36 2 -48 -3 -16
-5 -11 -6 15 -1 26 -5 37 -13 33 -7 -2 -46 -15 -85 -28 -40 -12 -73 -25 -73
-28 0 -4 19 -17 42 -31 l42 -25 186 64 c102 36 187 66 189 68 5 4 -24 26 -57
44 -19 11 -35 9 -106 -14 -80 -26 -149 -37 -116 -18 33 19 797 281 820 281 37
0 13 -15 -65 -40 -38 -12 -74 -26 -78 -30 -4 -4 10 -19 32 -33 l40 -27 187 65
c103 36 189 67 191 68 2 2 -15 16 -38 31 l-41 28 -94 -33 c-61 -21 -98 -29
-104 -23 -6 6 62 35 192 79 212 74 253 94 277 137 29 51 10 74 -156 183 -83
55 -152 103 -152 108 -2 17 40 4 101 -32 l65 -40 58 18 59 18 -138 93 c-148
99 -152 100 -231 66 l-29 -12 64 -45 c55 -37 62 -44 42 -47 -16 -3 -108 52
-316 190 -162 106 -292 196 -289 201 9 15 35 6 91 -30 31 -21 59 -41 62 -44 3
-4 32 3 65 16 l60 22 -140 92 c-149 98 -147 97 -223 65 l-35 -14 62 -40 c54
-35 71 -60 41 -60 -5 0 -71 41 -147 92 -186 123 -221 138 -330 143 -49 3 -106
0 -128 -6z m260 -28 l45 -20 0 -674 c0 -633 -1 -675 -17 -682 -23 -9 -326
-115 -330 -115 -2 0 -3 337 -3 749 l0 750 43 10 c65 16 208 6 262 -18z m-635
-31 c0 -20 -6 -33 -17 -37 -10 -3 -34 -13 -53 -21 -19 -8 -40 -16 -46 -17 -6
-2 -49 -15 -96 -30 -82 -27 -85 -27 -111 -10 -15 9 -27 20 -27 24 0 6 316 119
338 120 7 1 12 -11 12 -29z m58 2 c11 -7 6 -12 -17 -20 -30 -11 -31 -10 -31
19 0 31 3 31 48 1z m262 -720 l0 -748 -97 -32 c-104 -34 -195 -49 -237 -38
l-26 6 0 719 0 719 138 47 c75 27 151 54 167 61 17 7 36 13 43 13 9 1 12 -155
12 -747z m509 633 l121 -80 0 -540 0 -541 -122 -42 c-68 -23 -126 -42 -130
-42 -5 0 -8 300 -8 666 0 375 4 664 9 662 5 -1 63 -39 130 -83z m161 15 c0
-40 -22 -47 -62 -22 l-32 21 24 9 c14 5 32 12 40 15 27 10 30 7 30 -23z m145
-60 l120 -79 -37 -16 c-21 -8 -44 -15 -51 -15 -18 0 -187 109 -187 121 0 5 5
9 10 9 6 0 10 14 10 30 0 17 3 30 8 30 4 0 61 -36 127 -80z m-1185 -685 c0
-629 -2 -715 -15 -715 -13 0 -15 86 -15 715 0 629 2 715 15 715 13 0 15 -86
15 -715z m-54 -702 c-7 -8 -84 36 -220 125 -73 48 -140 92 -149 97 -8 6 -106
70 -216 144 l-201 134 2 315 3 315 390 136 390 137 3 -700 c1 -384 0 -701 -2
-703z m1084 806 c0 -346 -3 -529 -10 -529 -7 0 -10 185 -10 536 0 354 3 533
10 529 6 -4 10 -193 10 -536z m417 250 l172 -114 1 -226 0 -226 -47 -18 c-27
-10 -61 -23 -78 -30 -16 -7 -52 -19 -80 -27 -27 -9 -121 -40 -207 -71 l-158
-55 0 514 0 514 113 -73 c61 -40 190 -125 284 -188z m-2247 167 c0 -27 -5 -36
-22 -41 -13 -4 -36 -13 -53 -20 -16 -7 -72 -27 -123 -44 l-94 -30 -33 22 -34
22 177 62 c97 34 178 62 180 62 1 1 2 -14 2 -33z m54 -17 c-35 -14 -44 -10
-44 22 l0 30 32 -22 c28 -21 29 -23 12 -30z m-104 -390 c0 -276 -2 -310 -15
-299 -13 11 -15 58 -15 311 0 259 2 299 15 299 13 0 15 -41 15 -311z m-50 11
c0 -154 -2 -280 -5 -280 -3 0 -29 16 -58 35 -28 19 -57 35 -64 35 -6 0 -13 4
-15 8 -1 5 -51 41 -110 81 l-108 71 0 103 0 102 173 62 c94 33 175 61 180 62
4 1 7 -125 7 -279z m2550 211 c0 -39 -14 -46 -50 -24 -38 22 -38 28 3 41 47
15 47 15 47 -17z m146 -55 l125 -84 -47 -16 -47 -16 -63 40 c-35 22 -66 40
-69 40 -3 0 -18 11 -33 25 -15 14 -21 25 -14 25 7 0 12 14 12 35 0 19 2 35 5
35 3 0 62 -38 131 -84z m-3066 -102 l0 -96 -32 20 c-18 12 -41 32 -51 45 -17
22 -17 27 -4 59 9 21 27 41 48 51 19 9 35 17 37 17 1 0 2 -43 2 -96z m2920
-164 c0 -140 -4 -220 -10 -220 -6 0 -10 80 -10 220 0 140 4 220 10 220 6 0 10
-80 10 -220z m147 109 l124 -82 -3 -76 -3 -76 -115 -42 c-63 -23 -121 -42
-127 -42 -10 -1 -13 45 -13 199 0 110 3 200 6 200 4 0 62 -37 131 -81z m173
-154 c0 -13 -9 -33 -20 -46 l-19 -24 0 70 0 70 19 -24 c11 -13 20 -33 20 -46z
m-3190 -15 c0 -40 -22 -47 -62 -22 l-32 21 24 9 c14 5 32 12 40 15 27 10 30 7
30 -23z m66 -10 c41 -29 44 -34 44 -75 0 -25 -2 -45 -5 -45 -3 0 -30 16 -60
36 -52 35 -68 54 -45 54 6 0 10 14 10 30 0 17 3 30 6 30 3 0 25 -14 50 -30z
m74 -90 c0 -27 -4 -50 -10 -50 -5 0 -10 23 -10 50 0 28 5 50 10 50 6 0 10 -22
10 -50z m119 -36 c4 -4 -38 -21 -74 -30 -24 -6 -25 -4 -25 45 l0 52 48 -32
c26 -18 49 -34 51 -35z m2651 -88 c0 -33 -2 -34 -71 -60 -38 -14 -72 -26 -75
-26 -2 0 -4 15 -4 34 0 34 2 35 73 59 39 14 73 26 75 26 1 1 2 -14 2 -33z m54
-17 c-35 -14 -44 -10 -44 22 l0 30 32 -22 c28 -21 29 -23 12 -30z m-214 -44
c0 -24 -5 -35 -15 -35 -10 0 -15 11 -15 35 0 24 5 35 15 35 10 0 15 -11 15
-35z m-52 -17 c-2 -26 -9 -33 -41 -44 -35 -12 -41 -11 -72 9 l-34 22 62 22
c85 29 89 29 85 -9z m-2088 -107 c0 -39 -14 -46 -50 -24 -37 21 -38 29 -2 41
44 17 52 14 52 -17z m98 -23 c18 -9 22 -19 22 -60 0 -26 -2 -48 -6 -48 -15 0
-127 84 -116 88 7 2 12 19 12 39 l0 35 33 -22 c17 -11 42 -26 55 -32z m52 -78
c0 -27 -4 -50 -10 -50 -5 0 -10 23 -10 50 0 28 5 50 10 50 6 0 10 -22 10 -50z
m92 -46 c-72 -30 -72 -30 -72 25 l0 51 50 -32 49 -33 -27 -11z m1208 34 c0
-32 -3 -34 -76 -60 l-75 -27 3 36 c3 35 5 37 68 59 84 29 80 29 80 -8z m50 12
l25 -19 -28 -10 c-38 -15 -37 -15 -37 19 0 35 6 36 40 10z m-210 -64 c0 -19
-4 -38 -10 -41 -6 -4 -10 10 -10 34 0 23 5 41 10 41 6 0 10 -15 10 -34z m-50
-21 c0 -31 -3 -35 -39 -46 -35 -10 -44 -9 -73 9 -24 15 -28 22 -18 26 15 6
123 44 128 45 1 1 2 -15 2 -34z"/>
<path d="M2680 1604 c-58 -11 -158 -48 -205 -75 -77 -45 -102 -66 -89 -79 7
-7 18 -4 38 13 81 70 218 117 366 124 121 6 197 -6 267 -44 42 -22 46 -22 30
-5 -10 11 -42 30 -70 43 -44 19 -72 23 -182 25 -71 1 -141 0 -155 -2z m47 -10
c-3 -3 -12 -4 -19 -1 -8 3 -5 6 6 6 11 1 17 -2 13 -5z m-60 -10 c-3 -3 -12 -4
-19 -1 -8 3 -5 6 6 6 11 1 17 -2 13 -5z m-82 -24 c-27 -12 -43 -12 -25 0 8 5
22 9 30 9 10 0 8 -3 -5 -9z m-80 -28 c-30 -26 -115 -81 -115 -74 0 4 26 24 58
45 54 35 77 47 57 29z"/>
<path d="M2438 1576 c-132 -54 -237 -140 -259 -215 -11 -36 -10 -47 5 -78 20
-41 32 -39 16 3 -31 81 100 216 261 269 46 16 59 28 41 39 -4 2 -33 -6 -64
-18z m-33 -35 c-33 -15 -82 -45 -110 -66 -76 -57 -84 -61 -35 -16 46 42 163
110 190 111 8 0 -12 -13 -45 -29z"/>
<path d="M2825 1552 c-41 -15 -58 -29 -52 -46 4 -9 12 -16 18 -16 8 0 7 6 -2
18 -13 15 -12 16 3 3 10 -7 15 -17 12 -23 -3 -5 2 -20 10 -33 21 -32 18 -31
-54 5 -74 37 -120 40 -120 8 0 -13 7 -32 15 -42 25 -32 17 -36 -30 -15 -85 38
-130 10 -80 -49 33 -40 32 -44 -10 -26 -19 7 -45 14 -58 14 -14 0 -30 7 -37
15 -23 28 -77 29 -141 4 -32 -13 -59 -29 -59 -35 0 -15 137 -109 171 -117 54
-13 169 41 169 79 0 10 9 12 30 8 32 -7 39 6 20 36 -7 11 -3 18 13 27 12 7 27
12 32 12 6 0 -1 -6 -13 -13 -23 -12 -23 -13 20 -29 47 -18 84 -22 92 -9 8 13
-35 73 -47 66 -9 -5 -9 -4 -1 5 9 10 23 7 62 -13 55 -28 69 -31 91 -17 11 7
12 13 3 23 -9 12 -2 14 47 10 107 -8 165 43 109 95 -52 47 -158 75 -213 55z
m95 -9 c0 -5 -20 -8 -44 -8 -25 0 -42 3 -40 7 7 10 84 10 84 1z m-100 -7 c0
-3 -4 -8 -10 -11 -5 -3 -10 -1 -10 4 0 6 5 11 10 11 6 0 10 -2 10 -4z m159
-10 c21 -12 22 -14 5 -20 -10 -4 -15 -4 -11 0 4 4 -5 13 -20 20 -16 7 -21 13
-13 13 8 0 26 -6 39 -13z m-41 -13 c45 -20 72 -24 72 -10 0 18 36 -22 37 -42
2 -30 -20 -42 -89 -46 -98 -5 -170 37 -123 71 26 19 35 17 35 -8 0 -12 7 -30
17 -40 17 -18 43 -25 43 -10 0 5 18 8 40 8 42 -1 51 13 29 44 -8 12 -9 11 -4
-6 4 -18 0 -23 -22 -27 -29 -5 -93 16 -93 30 0 15 12 53 16 53 3 0 21 -8 42
-17z m-167 -68 c27 -14 55 -23 61 -19 7 5 8 2 3 -6 -6 -10 -4 -12 11 -6 10 4
15 4 11 0 -4 -4 1 -13 10 -19 15 -11 15 -13 -5 -19 -16 -6 -41 3 -88 28 -74
41 -74 41 -74 20 0 -9 5 -12 12 -8 7 4 8 3 4 -5 -7 -11 27 -65 36 -56 3 3 5
-2 5 -10 0 -15 -23 -20 -51 -9 -9 3 -16 16 -16 28 0 11 -9 36 -20 54 -11 18
-20 35 -20 37 0 15 57 0 128 -35 45 -21 82 -37 82 -35 0 3 -35 23 -77 44 -43
22 -74 40 -70 41 4 0 30 -11 58 -25z m144 -5 c3 -5 1 -10 -4 -10 -6 0 -11 5
-11 10 0 6 2 10 4 10 3 0 8 -4 11 -10z m-352 -27 c-7 -2 -19 -2 -25 0 -7 3 -2
5 12 5 14 0 19 -2 13 -5z m82 -23 c3 -4 -2 -11 -11 -14 -8 -3 -12 -2 -9 4 3 5
-6 12 -20 16 -14 3 -25 10 -25 15 0 9 58 -9 65 -21z m-55 2 c8 -4 16 -16 16
-27 1 -11 4 -27 8 -36 6 -13 2 -17 -17 -15 -14 0 -23 5 -20 9 3 5 -4 18 -14
30 -34 38 -36 47 -11 46 13 0 30 -3 38 -7z m-174 -22 c43 -17 22 -21 -27 -6
-27 9 -36 14 -22 15 12 1 34 -4 49 -9z m-49 -14 c22 -4 26 -15 13 -32 -13 -15
-35 -15 -71 0 -10 5 -16 2 -16 -9 0 -11 6 -14 21 -9 14 3 17 2 8 -4 -9 -6 -6
-11 12 -20 20 -9 27 -7 45 12 12 12 21 30 21 39 0 22 12 22 39 0 l22 -18 -36
-19 c-35 -19 -45 -39 -25 -51 6 -4 10 -3 9 2 -4 22 4 33 32 47 29 14 59 12 59
-4 0 -4 -13 -13 -29 -20 -21 -8 -28 -17 -25 -28 5 -14 4 -14 -6 1 -11 18 -36
25 -25 7 3 -6 0 -13 -8 -16 -15 -6 -131 65 -122 74 2 3 -3 11 -13 19 -9 8 -12
12 -5 8 7 -3 27 1 45 10 l33 15 -30 -5 c-23 -4 -26 -3 -15 5 8 6 24 8 35 5 11
-3 25 -7 32 -9z m162 -27 c17 -6 31 -15 31 -20 0 -6 -9 -5 -21 1 -11 7 -27 9
-35 6 -8 -3 -12 -2 -9 3 3 5 -3 12 -12 14 -15 4 -15 5 -2 6 9 0 30 -4 48 -10z
m16 -32 c23 -18 13 -35 -33 -54 -25 -10 -38 -11 -46 -3 -8 8 -7 13 4 20 24 15
37 11 16 -5 -11 -8 -15 -15 -10 -15 17 0 34 23 34 47 0 26 8 29 35 10z"/>
<path d="M3010 1486 c0 -2 7 -7 16 -10 8 -3 12 -2 9 4 -6 10 -25 14 -25 6z"/>
<path d="M3110 1508 c0 -4 5 -18 11 -31 28 -62 -54 -144 -201 -198 -163 -60
-289 -83 -450 -83 -130 -1 -150 1 -194 22 -56 25 -63 27 -44 10 40 -38 129
-60 240 -60 115 0 210 12 183 23 -16 6 -17 8 -3 8 9 1 19 -3 22 -8 7 -10 205
40 287 73 109 45 189 123 189 184 0 18 -39 77 -40 60z m-26 -159 c-27 -28
-151 -96 -159 -87 -3 2 21 16 53 31 31 14 73 39 92 56 45 39 52 39 14 0z
m-189 -99 c-11 -5 -27 -9 -35 -9 -9 0 -8 4 5 9 11 5 27 9 35 9 9 0 8 -4 -5 -9z
m-88 -26 c-3 -3 -12 -4 -19 -1 -8 3 -5 6 6 6 11 1 17 -2 13 -5z m-90 -20 c-3
-3 -12 -4 -19 -1 -8 3 -5 6 6 6 11 1 17 -2 13 -5z m-114 -21 c-7 -2 -19 -2
-25 0 -7 3 -2 5 12 5 14 0 19 -2 13 -5z m-126 -9 c-3 -3 -12 -4 -19 -1 -8 3
-5 6 6 6 11 1 17 -2 13 -5z"/>
</g>
</svg>
